# xmcd CD database file
#
# Track frame offsets:
#	150
#	5027
#	22162
#	40427
#	53360
#	70795
#	88515
#	108867
#	129555
#	133727
#	152095
#	155817
#	179740
#	198607
#	217075
#	234770
#	252240
#	270025
#
# Disc length: 3827 seconds
#
# Revision: 5
# Processed by: cddbd v1.5.2PL0 Copyright (c) Steve Scherf et al.
# Submitted via: CDex 1.70beta2
#
DISCID=fb0ef112
DTITLE=Keith Sweat - Didn't See Me Coming
DYEAR=2000
DGENRE=R&B
TTITLE0=Intro
TTITLE1=Things (Feat. Busta Rhymes and Rah Digga)
TTITLE2=Whatcha Like
TTITLE3=Satisfy You
TTITLE4=I Put U On
TTITLE5=He Say She Say (Feat. T-Boz)
TTITLE6=Real Man
TTITLE7=Kiss You
TTITLE8=I'll Trade (A Million Bucks) (Feat. Lil' Mo) - Interlude
TTITLE9=Don't Have Me (Feat. Dave Hollister)
TTITLE10=Tonite
TTITLE11=Caught Up
TTITLE12=Games
TTITLE13=I'll Trade (A Million Bucks) (Feat. Lil' Mo)
TTITLE14=Only Wanna Please You
TTITLE15=Why U Treat Me So Cold (Feat. Lil' Wayne)
TTITLE16=I'll Trade (A Million Bucks) (Feat. Lil' Mo) (Remix)
TTITLE17=Dieser Brief (Feat. Ayman)
EXTD=YEAR: 2000
EXTT0=
EXTT1=
EXTT2=
EXTT3=
EXTT4=
EXTT5=
EXTT6=
EXTT7=
EXTT8=
EXTT9=
EXTT10=
EXTT11=
EXTT12=
EXTT13=
EXTT14=
EXTT15=
EXTT16=
EXTT17=
PLAYORDER=
